<?xml version="1.0" encoding="utf-8"?>
<!-- Generator: Adobe Illustrator 26.5.0, SVG Export Plug-In . SVG Version: 6.00 Build 0)  -->
<svg version="1.1" id="Layer_1" xmlns="http://www.w3.org/2000/svg" xmlns:xlink="http://www.w3.org/1999/xlink" x="0px" y="0px"
	 viewBox="0 0 1000 1000" style="enable-background:new 0 0 1000 1000;" xml:space="preserve">
<style type="text/css">
	.st0{fill:#FFFFFF;}
	.st1{display:none;}
	.st2{display:inline;}
	.st3{fill:none;stroke:#000000;stroke-width:9;stroke-linecap:round;stroke-miterlimit:10;}
	.st4{display:inline;fill:none;stroke:#000000;stroke-width:9;stroke-linecap:round;stroke-miterlimit:10;}
	.st5{fill:none;stroke:#000000;stroke-width:15;stroke-miterlimit:10;}
	.st6{fill:#9E463C;}
	.st7{fill:#9469AD;}
</style>
<circle class="st0" cx="493" cy="505.1" r="405.1"/>
<g class="st1">
	<g class="st2">
		<path class="st3" d="M702.9,495.6C684.3,616,549.2,700.5,408.1,668.4c-136.2-31-198.6-153.7-150.1-261.1"/>
		<path class="st3" d="M609.9,477.1c-14.7,68.6-93.3,114.3-173.2,97.2c-78.3-16.8-118.7-86-93.6-150.1"/>
		<path class="st3" d="M519,459.1c-5.9,21.7-31.4,35.6-56.6,30.4c-25.1-5.1-39.4-26.8-32.3-48.1"/>
		<path class="st3" d="M798,514.4c12.1-127.1-90.4-235.5-223.6-258.4c-128.9-22.2-266,39.6-316.5,151.3"/>
		<path class="st3" d="M702.9,495.6c13.1-85-53.2-161.3-145.3-177.9c-90-16.2-183.9,28.6-214.5,106.5"/>
		<path class="st3" d="M609.9,477.1c9.1-42.7-22.9-83-70.7-92c-47.2-8.9-95.5,15.5-109.1,56.3"/>
	</g>
	<path class="st4" d="M790.5,551.4c0,0-31.9,57-23.6,92.9c8.7,37.4,63.9,90.7,63.9,90.7"/>
</g>
<g class="st1">
	<g class="st2">
		<path class="st3" d="M702.9,495.6C684.3,616,549.2,700.5,408.1,668.4c-136.2-31-198.6-153.7-150.1-261.1"/>
		<path class="st3" d="M609.9,477.1c-14.7,68.6-93.3,114.3-173.2,97.2c-78.3-16.8-118.7-86-93.6-150.1"/>
		<path class="st3" d="M519,459.1c-5.9,21.7-31.4,35.6-56.6,30.4c-25.1-5.1-39.4-26.8-32.3-48.1"/>
		<path class="st3" d="M798,514.4c12.1-127.1-90.4-235.5-223.6-258.4c-128.9-22.2-266,39.6-316.5,151.3"/>
		<path class="st3" d="M702.9,495.6c13.1-85-53.2-161.3-145.3-177.9c-90-16.2-183.9,28.6-214.5,106.5"/>
		<path class="st3" d="M609.9,477.1c9.1-42.7-22.9-83-70.7-92c-47.2-8.9-95.5,15.5-109.1,56.3"/>
	</g>
	<path class="st4" d="M790.5,551.4c0,0-31.9,57-23.6,92.9c8.7,37.4,63.9,90.7,63.9,90.7"/>
</g>
<path class="st1" d="M487.7,262.3c-107.9,0-195.3,87.5-195.3,195.3S379.8,653,487.7,653S683,565.5,683,457.7
	S595.5,262.3,487.7,262.3z M487.7,617.7c-88.4,0-160-71.6-160-160s71.6-160,160-160c88.4,0,160,71.6,160,160S576,617.7,487.7,617.7z
	"/>
<g>
</g>
<g>
	<path class="st5" d="M672.1,493.1C653.5,613.5,518.4,698,377.3,665.9c-136.2-31-198.6-153.7-150.1-261.1"/>
	<path class="st5" d="M579.1,474.6c-14.7,68.6-93.3,114.3-173.2,97.2c-78.3-16.8-118.7-86-93.6-150.1"/>
	<path class="st5" d="M488.2,456.6c-5.9,21.7-31.4,35.6-56.6,30.4c-25.1-5.1-39.4-26.8-32.3-48.1"/>
	<path class="st5" d="M767.2,511.9c12.1-127.1-90.4-235.5-223.6-258.4c-128.9-22.2-266,39.6-316.5,151.3"/>
	<path class="st5" d="M672.1,493.1c13.1-85-53.2-161.3-145.3-177.9c-90-16.2-183.9,28.6-214.5,106.5"/>
	<path class="st5" d="M579.1,474.6c9.1-42.7-22.9-83-70.7-92c-47.2-8.9-95.5,15.5-109.1,56.3"/>
</g>
<path class="st5" d="M763.3,544.9c-5.6,35.1-21.6,35.8-20.4,102.2"/>
<g class="st1">
	<path class="st2" d="M573.7,260.4C710.5,284,805,393,793.5,514c-0.2,2.5,1.6,4.7,4.1,4.9c0.1,0,0.3,0,0.4,0c2.3,0,4.3-1.7,4.5-4.1
		c5.9-61.7-14.9-122.7-58.4-171.7c-42.3-47.6-102.3-80.1-168.8-91.6c-63.9-11-131.5-1.8-190.3,25.8c-59.9,28.1-106.4,73.6-131,128.1
		c-11.6,25.7-17.2,52.5-16.7,79.7c0.5,26.5,6.9,52.2,18.8,76.2c13.4,26.9,32.9,50.2,58.1,69.2c26.4,20,57.7,34.1,93,42.2
		c20.4,4.7,41.1,6.9,61.6,6.9c52.7,0,104.1-15.2,146.9-44.2c50.6-34.4,83.2-83.8,91.7-139.2c6.5-42-5.7-83.9-34.2-118.2
		c-27.9-33.5-68.6-56.5-114.7-64.8c-44.8-8.1-91.8-1.5-132.3,18.3c-41.1,20.2-72.1,52.5-87.2,90.9c-11.9,30.4-10.1,62.8,5.2,91.3
		c17.4,32.4,50.8,56.1,91.6,64.9c11.7,2.5,23.5,3.8,35.2,3.8c27.8,0,55-7,79.1-20.7c33.6-19.1,57-49.6,64.3-83.7
		c4.2-19.7,0.2-40.1-11.3-57.4c-13.6-20.4-36.6-35-63-40c-49.8-9.4-100,16.7-114.2,59.3c-3.6,10.7-2.4,22,3.2,31.8
		c6.5,11.2,18.3,19.3,32.4,22.1c3.9,0.8,7.8,1.2,11.6,1.2c23.3,0,44.6-14.1,50.3-34.8c0.7-2.4-0.8-4.9-3.2-5.5
		c-2.4-0.7-4.9,0.8-5.5,3.2c-5.4,19.7-28.4,31.9-51.4,27.2c-11.6-2.4-21.3-8.9-26.4-17.8c-4.3-7.5-5.2-16.2-2.5-24.4
		c12.8-38.5,58.5-61.9,104-53.3c24.1,4.5,44.9,17.7,57.2,36.2c10.1,15.2,13.7,33.2,10,50.5c-6.8,31.6-28.6,60-60,77.8
		c-32.3,18.3-70.6,24-107.9,15.9c-38.2-8.2-69.4-30.2-85.6-60.3c-14-26.1-15.7-55.8-4.8-83.7c29.5-75.3,119.6-119.9,209.5-103.7
		c91.8,16.5,154,92.4,141.6,172.8C690.2,547.8,659,595,610.5,628c-57.3,38.9-130.7,52.1-201.4,36c-65.9-15-118.8-53.9-145-106.6
		c-23.3-46.9-24-99.5-2-148.2C310.4,302.1,444.4,238.2,573.7,260.4z"/>
	<path class="st2" d="M833.9,731.8c-0.5-0.5-54.3-52.8-62.6-88.5c-7.8-33.8,22.8-89.1,23.1-89.7c1.2-2.2,0.4-4.9-1.7-6.1
		c-2.2-1.2-4.9-0.4-6.1,1.7c-1.3,2.4-32.7,58.9-24,96.1c8.9,38.3,62.8,90.7,65.1,92.9c0.9,0.8,2,1.3,3.1,1.3c1.2,0,2.4-0.5,3.2-1.4
		C835.8,736.3,835.7,733.5,833.9,731.8z"/>
</g>
<path class="st6" d="M483.9,456.3c6.5-22.5-6.5-46-29-52.5c-22.5-6.5-46,6.5-52.5,29c-6.5,22.5,6.5,46,29,52.5
	C454,491.7,477.5,478.8,483.9,456.3"/>
<path class="st7" d="M483.9,456.3c6.5-22.5-6.5-46-29-52.5c-22.5-6.5-46,6.5-52.5,29c-6.5,22.5,6.5,46,29,52.5
	C454,491.7,477.5,478.8,483.9,456.3"/>
<image style="overflow:visible;" width="1600" height="1200" xlink:href="89988654.jpg"  transform="matrix(0.4836 0 0 0.4836 1133.5 184.4544)">
</image>
</svg>
