<?xml version="1.0" encoding="utf-8"?>
<!-- Generator: Adobe Illustrator 26.5.0, SVG Export Plug-In . SVG Version: 6.00 Build 0)  -->
<svg version="1.1" id="Layer_1" xmlns="http://www.w3.org/2000/svg" xmlns:xlink="http://www.w3.org/1999/xlink" x="0px" y="0px"
	 viewBox="0 0 500 500" style="enable-background:new 0 0 500 500;" xml:space="preserve">
<style type="text/css">
	.st0{fill:#0F0503;}
</style>
<g>
	<path class="st0" d="M479.8,156.5C455,97,408.7,49.1,349.2,24.3C317.8,9.4,284.7,2.8,250,2.8s-67.8,6.6-97.5,19.8
		C92.9,47.4,46.6,95.4,21.8,154.9C8.6,184.6,2,217.7,2,250.8s6.6,66.1,18.2,94.2C45,404.5,91.3,452.5,150.8,477.3
		c29.8,13.2,62.8,19.8,97.5,19.8s67.8-6.6,97.5-19.8c59.5-24.8,105.8-72.7,130.6-132.3c14.9-28.1,21.5-61.2,21.5-94.2
		S491.4,184.6,479.8,156.5z M423.6,330.1c0,51.3-43,94.2-94.2,94.2H175.6c-51.3,0-94.2-43-94.2-94.2V176.4c0-51.3,43-94.2,94.2-94.2
		h153.8c51.3,0,94.2,43,94.2,94.2V330.1z"/>
	<path class="st0" d="M251.7,204.5c-26.5,0-47.9,21.5-47.9,47.9s21.5,47.9,47.9,47.9c26.5,0,47.9-21.5,47.9-47.9
		S278.1,204.5,251.7,204.5z"/>
	<path class="st0" d="M329.4,116.9H175.6c-33.1,0-59.5,28.1-59.5,59.5v153.8c0,33.1,28.1,59.5,59.5,59.5h153.8
		c33.1,0,59.5-28.1,59.5-59.5V176.4C388.9,141.7,360.8,116.9,329.4,116.9z M251.7,335.1c-46.3,0-82.7-36.4-82.7-82.7
		s36.4-82.7,82.7-82.7s82.7,36.4,82.7,82.7S297.9,335.1,251.7,335.1z M340.9,187.9c-13.2,0-23.1-9.9-23.1-23.1
		c0-11.6,9.9-23.1,23.1-23.1c11.6,0,23.1,9.9,23.1,23.1C362.4,178,354.2,187.9,340.9,187.9z"/>
</g>
</svg>
