<?xml version="1.0" encoding="utf-8"?>
<!-- Generator: Adobe Illustrator 26.5.0, SVG Export Plug-In . SVG Version: 6.00 Build 0)  -->
<svg version="1.1" id="Layer_1" xmlns="http://www.w3.org/2000/svg" xmlns:xlink="http://www.w3.org/1999/xlink" x="0px" y="0px"
	 viewBox="0 0 500 500" style="enable-background:new 0 0 500 500;" xml:space="preserve">
<style type="text/css">
	.st0{fill:#0F0503;}
</style>
<path class="st0" d="M235,250v0.1v-0.2C235,249.9,235,250,235,250z"/>
<path class="st0" d="M250,265c0.6,0,1.3-0.1,1.9-0.1h-3.8C248.7,264.9,249.4,265,250,265z"/>
<path class="st0" d="M497.8,250.8C497.8,113.7,387.1,3,250,3C114.5,3,3.9,113.7,2.2,249.1v3.3c1.7,125.5,94.2,228,216.4,244.5h62.8
	C403.6,480.4,497.8,376.3,497.8,250.8z M395.4,173.1c-1.7,1.7-3.3,5-3.3,6.6c1.7,44.6-11.6,89.2-38,125.5
	c-31.4,46.3-79.3,77.6-135.5,84.2c-44.6,8.3-92.5,0-132.1-21.5c-5-1.7-8.3-5-13.2-8.3v-1.7c38,3.3,76-6.6,105.7-29.7
	c-5,0-8.3-1.7-11.6-1.7c-24.8-5-44.6-21.5-54.5-44.6c-1.7-3.3-1.7-5,3.3-3.3c8.3,1.7,18.2,0,26.4-1.7c-8.3-1.7-14.9-5-21.5-9.9
	c-19.8-13.2-33-33-34.7-57.8v-1.7c0-5,0-5,5-3.3c8.3,5,18.2,6.6,28.1,6.6c-3.3-3.3-6.6-6.6-9.9-9.9c-24.8-18.2-29.7-52.9-14.9-80.9
	c1.7-3.3,1.7-3.3,5,0c18.2,21.5,39.6,38,64.4,51.2c23.1,13.2,49.6,19.8,77.6,21.5c6.6,0,6.6,0,6.6-6.6c-5-39.6,23.1-77.6,64.4-82.6
	c21.5-3.3,42.9,5,59.5,19.8c1.7,1.7,5,3.3,6.6,1.7c13.2-3.3,26.4-8.3,38-14.9c1.7,0,1.7-1.7,3.3-1.7c-5,14.9-14.9,29.7-29.7,38
	c13.2-1.7,26.4-5,38-9.9c-1.7,3.3-1.7,5-3.3,5C416.8,153.3,406.9,164.9,395.4,173.1z"/>
</svg>
