<?xml version="1.0" encoding="utf-8"?>
<!-- Generator: Adobe Illustrator 26.5.0, SVG Export Plug-In . SVG Version: 6.00 Build 0)  -->
<svg version="1.1" id="Layer_1" xmlns="http://www.w3.org/2000/svg" xmlns:xlink="http://www.w3.org/1999/xlink" x="0px" y="0px"
	 viewBox="0 0 500 500" style="enable-background:new 0 0 500 500;" xml:space="preserve">
<style type="text/css">
	.st0{fill:#0F0503;}
</style>
<g>
	<path class="st0" d="M304.8,206.9c-18.2,0-36.4,8.3-44.6,24.8l0,0v-21.5h-46.3v153.7h47.9v-76c0-19.8,3.3-39.7,28.1-39.7
		s24.8,23.1,24.8,41.3v74.4h47.9v-84.3C362.7,238.3,354.4,206.9,304.8,206.9z"/>
	<path class="st0" d="M159.4,134.2c-14.9,0-28.1,13.2-28.1,28.1c0,14.9,13.2,28.1,28.1,28.1s28.1-13.2,28.1-28.1l0,0
		C187.5,145.8,175.9,134.2,159.4,134.2z"/>
	<rect x="136.3" y="210.2" class="st0" width="47.9" height="153.7"/>
	<path class="st0" d="M250.3,2C113.1,2,2.4,112.7,2.4,249.9s110.7,247.9,247.9,247.9s247.9-110.7,247.9-247.9
		C498.2,114.4,385.8,2,250.3,2z M410.6,388.7c0,13.2-11.6,23.1-23.1,23.1h-276c-13.2,0-23.1-9.9-23.1-23.1v-276l0,0
		c0-13.2,11.6-23.1,23.1-23.1h274.3l0,0c13.2,0,23.1,9.9,23.1,23.1v276H410.6z"/>
</g>
</svg>
